<svg width="33" height="32" viewBox="0 0 33 32" fill="none" xmlns="http://www.w3.org/2000/svg">
<path d="M16.3342 2C8.60295 2 2.3342 8.26875 2.3342 16C2.3342 23.7313 8.60295 30 16.3342 30C24.0654 30 30.3342 23.7313 30.3342 16C30.3342 8.26875 24.0654 2 16.3342 2ZM23.0623 12.5531C23.0717 12.7 23.0717 12.8531 23.0717 13.0031C23.0717 17.5906 19.5779 22.875 13.1936 22.875C11.2248 22.875 9.39982 22.3031 7.86232 21.3188C8.14357 21.35 8.41232 21.3625 8.69982 21.3625C10.3248 21.3625 11.8186 20.8125 13.0092 19.8813C11.4842 19.85 10.2029 18.85 9.76545 17.475C10.2998 17.5531 10.7811 17.5531 11.3311 17.4125C10.5458 17.253 9.84006 16.8265 9.33362 16.2056C8.82719 15.5846 8.55134 14.8075 8.55295 14.0063V13.9625C9.01232 14.2219 9.55295 14.3812 10.1186 14.4031C9.64308 14.0862 9.25313 13.6569 8.9833 13.1532C8.71346 12.6495 8.57208 12.087 8.5717 11.5156C8.5717 10.8687 8.74045 10.2781 9.04357 9.76562C9.91514 10.8386 11.0027 11.7161 12.2357 12.3411C13.4686 12.9662 14.8192 13.3249 16.1998 13.3938C15.7092 11.0344 17.4717 9.125 19.5904 9.125C20.5904 9.125 21.4904 9.54375 22.1248 10.2188C22.9092 10.0719 23.6592 9.77812 24.3279 9.38437C24.0686 10.1875 23.5248 10.8656 22.8029 11.2937C23.5029 11.2188 24.1779 11.025 24.8029 10.7531C24.3311 11.4469 23.7404 12.0625 23.0623 12.5531Z" fill="black"/>
</svg>
