<svg width="29" height="29" viewBox="0 0 29 29" fill="none" xmlns="http://www.w3.org/2000/svg">
<g clip-path="url(#clip0)">
<path d="M28.3334 14.5886C28.3334 6.53018 22.0649 -0.0020752 14.3334 -0.0020752C6.59845 -0.000262695 0.329947 6.53018 0.329947 14.5904C0.329947 21.8712 5.45045 27.9068 12.1424 29.0015V18.8062H8.58995V14.5904H12.1459V11.3732C12.1459 7.71736 14.2372 5.69824 17.4344 5.69824C18.9674 5.69824 20.5687 5.9828 20.5687 5.9828V9.57155H18.8029C17.0652 9.57155 16.5227 10.6971 16.5227 11.8517V14.5886H20.4042L19.7847 18.8044H16.5209V28.9997C23.2129 27.905 28.3334 21.8694 28.3334 14.5886Z" fill="black"/>
</g>
<defs>
<clipPath id="clip0">
<rect width="28" height="29" fill="white" transform="translate(0.334198)"/>
</clipPath>
</defs>
</svg>
