<svg width="30" height="28" viewBox="0 0 30 28" fill="none" xmlns="http://www.w3.org/2000/svg">
<g clip-path="url(#clip0)">
<path d="M0.334198 2.0055C0.334198 0.89775 1.28757 0 2.46389 0H27.2045C28.3808 0 29.3342 0.89775 29.3342 2.0055V25.9945C29.3342 27.1023 28.3808 28 27.2045 28H2.46389C1.28757 28 0.334198 27.1023 0.334198 25.9945V2.0055ZM9.29339 23.4395V10.7958H4.94157V23.4395H9.29339ZM7.11839 9.0685C8.63545 9.0685 9.57976 8.099 9.57976 6.8845C9.55257 5.64375 8.63726 4.7005 7.14739 4.7005C5.65751 4.7005 4.6842 5.6455 4.6842 6.8845C4.6842 8.099 5.62851 9.0685 7.08939 9.0685H7.11839ZM16.0141 23.4395V16.3783C16.0141 16.0002 16.0431 15.6222 16.1591 15.3527C16.4727 14.5985 17.1886 13.8162 18.3921 13.8162C19.9672 13.8162 20.5961 14.9748 20.5961 16.6758V23.4395H24.9479V16.1875C24.9479 12.3025 22.8019 10.4965 19.9382 10.4965C17.6291 10.4965 16.5941 11.7215 16.0141 12.5842V12.628H15.9851C15.9948 12.6134 16.0044 12.5988 16.0141 12.5842V10.7958H11.6641C11.7185 11.9823 11.6641 23.4395 11.6641 23.4395H16.0141Z" fill="black"/>
</g>
<defs>
<clipPath id="clip0">
<rect width="29" height="28" fill="white" transform="translate(0.334198)"/>
</clipPath>
</defs>
</svg>
