<svg width="135" height="26" viewBox="0 0 135 26" fill="none" xmlns="http://www.w3.org/2000/svg">
<path d="M9.71115 16.6236C9.71115 21.4573 13.4789 25.3758 18.1266 25.3758C22.7743 25.3758 26.542 21.4573 26.542 16.6236C26.542 11.79 22.7743 7.8715 18.1266 7.8715C13.4789 7.8715 9.71115 11.79 9.71115 16.6236Z" fill="#E61B2E"/>
<path d="M0.995361 24.3509C1.61653 24.6396 2.30308 24.7997 3.02584 24.7997C5.84985 24.7997 8.15719 22.3559 8.17942 19.3414C8.20164 16.3269 5.93034 13.8832 3.10632 13.8832C2.40233 13.8832 1.73045 14.035 1.11807 14.3097L0.995361 24.3509Z" fill="#E61B2E"/>
<path d="M39.4598 0.943277C33.246 1.05391 28.1673 6.38383 28.0748 12.9426C27.9812 19.5706 33.0151 24.9437 39.3183 24.9437C39.3751 24.9437 39.4318 24.9433 39.4883 24.9424L39.4598 0.943277Z" fill="#E61B2E"/>
<path d="M56.7483 25.3181C61.4907 25.3181 64.3023 21.7527 64.3023 16.1692C64.3023 10.3839 61.2875 7.02037 56.8499 7.02037C54.3094 7.02037 52.5479 8.13034 51.2268 9.91302H51.159V0.76416H48.4152V24.8136H51.159V22.5263H51.2268C52.6495 24.4772 54.3771 25.3181 56.7483 25.3181ZM56.5451 23.0309C52.8189 23.0309 50.9897 20.1046 50.9897 16.2029C50.9897 12.4357 52.7511 9.34122 56.5789 9.34122C59.8986 9.34122 61.4907 12.3011 61.4907 16.2029C61.4907 20.1382 59.8986 23.0309 56.5451 23.0309Z" fill="#E61B2E"/>
<path d="M67.1412 24.8136H69.885V0.76416H67.1412V24.8136Z" fill="#E61B2E"/>
<path d="M81.208 25.2845C86.4586 25.2845 89.6428 21.1809 89.6428 16.1356C89.6428 11.0903 86.4586 6.98673 81.208 6.98673C75.9914 6.98673 72.7394 11.0903 72.7394 16.1356C72.7394 21.1809 75.9914 25.2845 81.208 25.2845ZM81.208 22.9972C77.4818 22.9972 75.551 19.97 75.551 16.1356C75.551 12.3011 77.4818 9.24031 81.208 9.24031C84.9342 9.24031 86.8312 12.3011 86.8312 16.1356C86.8312 19.97 84.9342 22.9972 81.208 22.9972Z" fill="#E61B2E"/>
<path d="M99.8654 25.2845C105.116 25.2845 108.3 21.1809 108.3 16.1356C108.3 11.0903 105.116 6.98673 99.8654 6.98673C94.6488 6.98673 91.3968 11.0903 91.3968 16.1356C91.3968 21.1809 94.6488 25.2845 99.8654 25.2845ZM99.8654 22.9972C96.1393 22.9972 94.2084 19.97 94.2084 16.1356C94.2084 12.3011 96.1393 9.24031 99.8654 9.24031C103.592 9.24031 105.489 12.3011 105.489 16.1356C105.489 19.97 103.592 22.9972 99.8654 22.9972Z" fill="#E61B2E"/>
<path d="M111.037 24.8136H113.78V13.9829C113.78 11.2584 116.152 9.30758 118.286 9.30758C120.081 9.30758 121.301 10.5857 121.301 12.7384V24.8136H124.044V13.9829C124.044 11.2584 126.077 9.30758 128.346 9.30758C130.108 9.30758 131.565 10.5857 131.565 12.7384V24.8136H134.308V12.6039C134.308 9.00486 132.106 7.02037 128.99 7.02037C126.856 7.02037 124.756 8.13034 123.638 10.1148H123.57C122.825 8.0967 121.131 7.02037 118.997 7.02037C116.795 7.02037 114.932 8.23124 113.848 9.91302H113.78V7.42399H111.037V24.8136Z" fill="#E61B2E"/>
</svg>
