<svg width="58" height="38" viewBox="0 0 58 38" fill="none" xmlns="http://www.w3.org/2000/svg">
<path d="M13.2896 24.6113C13.2896 31.9313 18.8688 37.8654 25.7511 37.8654C32.6333 37.8654 38.2125 31.9313 38.2125 24.6113C38.2125 17.2913 32.6333 11.3573 25.7511 11.3573C18.8688 11.3573 13.2896 17.2913 13.2896 24.6113Z" fill="#E61B2E"/>
<path d="M0.383362 36.3133C1.30318 36.7505 2.31982 36.9929 3.39007 36.9929C7.57184 36.9929 10.9885 33.2922 11.0214 28.7271C11.0543 24.1619 7.69103 20.4612 3.50925 20.4612C2.46679 20.4612 1.47187 20.6912 0.565066 21.1072L0.383362 36.3133Z" fill="#E61B2E"/>
<path d="M57.3412 0.865356C48.1398 1.03289 40.6193 9.1044 40.4822 19.0369C40.3437 29.0742 47.7979 37.2111 57.1316 37.2111C57.2156 37.2111 57.2996 37.2104 57.3834 37.2091L57.3412 0.865356Z" fill="#E61B2E"/>
</svg>
