<svg width="28" height="28" fill="none" xmlns="http://www.w3.org/2000/svg">
  <path d="M14 0C6.269 0 0 6.269 0 14s6.269 14 14 14 14-6.269 14-14S21.731 0 14 0zm6.728 10.553c.01.147.01.3.01.45 0 4.588-3.494 9.872-9.879 9.872a9.844 9.844 0 01-5.33-1.556c.28.031.55.044.837.044 1.625 0 3.118-.55 4.309-1.482a3.472 3.472 0 01-3.244-2.406c.535.078 1.016.078 1.566-.063a3.469 3.469 0 01-2.778-3.406v-.044c.46.26 1 .42 1.565.441a3.473 3.473 0 01-1.546-2.887c0-.647.168-1.238.471-1.75a9.85 9.85 0 007.157 3.628c-.491-2.36 1.272-4.269 3.39-4.269 1 0 1.9.419 2.535 1.094a6.856 6.856 0 002.203-.835 3.454 3.454 0 01-1.525 1.91 6.86 6.86 0 002-.54 7.272 7.272 0 01-1.74 1.8z" fill="#000"/>
</svg>
